<svg width="1280" height="720" viewBox="0 0 1280 720" fill="none" xmlns="http://www.w3.org/2000/svg">
    <g clip-path="url(#clip0_22_2)">
    <path d="M1280 0H0V720H1280V0Z" fill="#0F1011"/>
    <path d="M1280 0H0V720H1280V0Z" fill="#0F1011"/>
    <path d="M31.1279 51.256C32.1359 51.24 32.7599 51.12 32.9999 50.896C33.2559 50.656 33.3839 50.096 33.3839 49.216V38.464C33.3839 37.584 33.2559 37.032 32.9999 36.808C32.7599 36.568 32.1359 36.44 31.1279 36.424V35.68H37.5119C40.5999 35.68 42.9839 36.408 44.6639 37.864C46.3599 39.304 47.2079 41.336 47.2079 43.96C47.2079 46.488 46.3599 48.464 44.6639 49.888C42.9679 51.296 40.6079 52 37.5839 52H31.1279V51.256ZM35.3759 48.616C35.3759 49.544 35.5679 50.2 35.9519 50.584C36.3359 50.968 36.9839 51.16 37.8959 51.16C39.9759 51.16 41.6559 50.504 42.9359 49.192C44.2159 47.864 44.8559 46.128 44.8559 43.984C44.8559 41.68 44.1919 39.864 42.8639 38.536C41.5519 37.208 39.7439 36.544 37.4399 36.544H35.3759V48.616ZM50.5042 57.16C49.8482 57.16 49.3122 57 48.8962 56.68C48.4961 56.36 48.2961 55.936 48.2961 55.408C48.2961 55.008 48.4081 54.696 48.6321 54.472C48.8562 54.264 49.1602 54.16 49.5442 54.16C49.8642 54.16 50.1202 54.256 50.3122 54.448C50.5042 54.64 50.6962 54.896 50.8882 55.216C51.0962 55.552 51.3202 55.808 51.5602 55.984C52.0082 55.744 52.4242 55.288 52.8082 54.616C53.2082 53.96 53.7042 52.944 54.2962 51.568L54.3202 51.52L50.8402 43.384C50.4882 42.568 50.1922 42.016 49.9522 41.728C49.7282 41.44 49.4402 41.288 49.0882 41.272V40.624H54.0802V41.272C53.0562 41.32 52.5442 41.648 52.5442 42.256C52.5442 42.512 52.6322 42.856 52.8082 43.288L55.2562 49.288L57.8002 43.216C57.9602 42.832 58.0402 42.512 58.0402 42.256C58.0402 41.616 57.5042 41.288 56.4322 41.272V40.624H60.4162V41.272C60.0802 41.304 59.8082 41.456 59.6002 41.728C59.4082 41.984 59.1442 42.52 58.8082 43.336L55.0162 52.384C54.2962 54.112 53.5842 55.336 52.8802 56.056C52.1922 56.792 51.4002 57.16 50.5042 57.16ZM61.0475 51.352C61.8155 51.304 62.3195 51.184 62.5595 50.992C62.7995 50.784 62.9195 50.304 62.9195 49.552V37.336C62.8715 36.936 62.7275 36.672 62.4875 36.544C62.2635 36.416 61.8395 36.352 61.2155 36.352V35.8L64.1435 34.96H64.6715V49.552C64.6715 50.32 64.7755 50.8 64.9835 50.992C65.2075 51.184 65.7275 51.304 66.5435 51.352V52H61.0475V51.352ZM76.8203 52.24C76.2443 52.24 75.7723 52.056 75.4043 51.688C75.0363 51.32 74.8283 50.768 74.7803 50.032C74.4283 50.768 73.9563 51.336 73.3643 51.736C72.7723 52.136 72.1323 52.336 71.4443 52.336C70.5963 52.336 69.9083 52.104 69.3803 51.64C68.8683 51.176 68.6123 50.552 68.6123 49.768C68.6123 48.968 68.8843 48.32 69.4283 47.824C69.9883 47.328 70.8283 46.896 71.9483 46.528L74.7803 45.616V44.464C74.7803 42.512 73.9083 41.536 72.1643 41.536C71.3163 41.536 70.5483 41.76 69.8603 42.208C69.9083 42.56 70.1003 42.936 70.4363 43.336C70.7883 43.72 70.9643 44.072 70.9643 44.392C70.9643 44.744 70.8363 45.048 70.5803 45.304C70.3243 45.544 70.0123 45.664 69.6443 45.664C69.2123 45.664 68.8683 45.512 68.6123 45.208C68.3563 44.904 68.2283 44.512 68.2283 44.032C68.2283 43.056 68.7163 42.2 69.6923 41.464C70.6683 40.712 71.7243 40.336 72.8603 40.336C73.9963 40.336 74.8923 40.648 75.5483 41.272C76.2043 41.896 76.5323 42.864 76.5323 44.176V49.6C76.5323 50.064 76.5883 50.384 76.7003 50.56C76.8283 50.736 77.0283 50.824 77.3003 50.824C77.5883 50.824 77.8123 50.712 77.9723 50.488C78.1323 50.264 78.2763 49.888 78.4043 49.36L79.0523 49.552C78.9083 50.464 78.6763 51.144 78.3563 51.592C78.0523 52.024 77.5403 52.24 76.8203 52.24ZM70.5083 49.36C70.5083 49.84 70.6523 50.216 70.9403 50.488C71.2283 50.744 71.6283 50.872 72.1403 50.872C73.1963 50.872 74.0763 50.216 74.7803 48.904V46.552L72.7403 47.272C71.9563 47.544 71.3883 47.832 71.0363 48.136C70.6843 48.44 70.5083 48.848 70.5083 49.36ZM79.9147 51.352C80.6827 51.288 81.1707 51.152 81.3787 50.944C81.5867 50.736 81.6907 50.296 81.6907 49.624V43.36C81.6907 42.672 81.5787 42.232 81.3547 42.04C81.1467 41.848 80.6667 41.752 79.9147 41.752V41.2L82.8667 40.48H83.4427V42.64H83.4667C84.3307 41.104 85.5387 40.336 87.0907 40.336C88.1787 40.336 89.0267 40.68 89.6347 41.368C90.2587 42.056 90.5707 43.04 90.5707 44.32V49.624C90.5707 50.296 90.6667 50.736 90.8587 50.944C91.0507 51.152 91.5067 51.288 92.2267 51.352V52H87.0907V51.352C87.8427 51.288 88.3147 51.16 88.5067 50.968C88.7147 50.76 88.8187 50.312 88.8187 49.624V44.728C88.8187 43.816 88.6107 43.128 88.1947 42.664C87.7947 42.184 87.2187 41.944 86.4667 41.944C85.3787 41.944 84.3707 42.496 83.4427 43.6V49.624C83.4427 50.296 83.5467 50.736 83.7547 50.944C83.9627 51.152 84.4507 51.288 85.2187 51.352V52H79.9147V51.352ZM104.808 52.336C104.04 52.336 103.36 52.256 102.768 52.096C102.176 51.936 101.728 51.776 101.424 51.616C101.12 51.44 100.928 51.352 100.848 51.352C100.624 51.352 100.48 51.608 100.416 52.12H99.4801V46.288H100.488C100.808 49.664 102.256 51.352 104.832 51.352C105.808 51.352 106.56 51.12 107.088 50.656C107.616 50.192 107.88 49.544 107.88 48.712C107.88 47.992 107.696 47.368 107.328 46.84C106.96 46.312 106.352 45.84 105.504 45.424L103.008 44.128C101.856 43.536 101.008 42.864 100.464 42.112C99.9361 41.36 99.6721 40.464 99.6721 39.424C99.6721 38.176 100.104 37.184 100.968 36.448C101.848 35.712 103.064 35.344 104.616 35.344C105.304 35.344 105.92 35.424 106.464 35.584C107.024 35.744 107.448 35.912 107.736 36.088C108.04 36.248 108.232 36.328 108.312 36.328C108.488 36.328 108.624 36.072 108.72 35.56H109.632V40.768H108.648C108.488 39.232 108.088 38.112 107.448 37.408C106.808 36.688 105.872 36.328 104.64 36.328C103.712 36.328 102.968 36.568 102.408 37.048C101.848 37.512 101.568 38.136 101.568 38.92C101.568 39.608 101.744 40.2 102.096 40.696C102.464 41.176 103.08 41.64 103.944 42.088L106.56 43.432C107.664 44.008 108.472 44.664 108.984 45.4C109.512 46.12 109.776 46.984 109.776 47.992C109.776 49.352 109.336 50.416 108.456 51.184C107.592 51.952 106.376 52.336 104.808 52.336ZM116.562 52.336C115.538 52.336 114.714 51.992 114.09 51.304C113.482 50.616 113.178 49.632 113.178 48.352V42.76C113.178 42.248 113.082 41.888 112.89 41.68C112.698 41.456 112.346 41.304 111.834 41.224V40.624H114.93V47.896C114.93 49.784 115.674 50.728 117.162 50.728C118.218 50.728 119.194 50.184 120.09 49.096V42.856C120.09 42.232 119.978 41.832 119.754 41.656C119.546 41.464 119.09 41.328 118.386 41.248V40.624H121.842V49.336C121.842 50.072 121.962 50.552 122.202 50.776C122.442 50.984 122.938 51.088 123.69 51.088V51.712L120.426 52.144L120.09 51.88V50.032C119.642 50.832 119.138 51.416 118.578 51.784C118.018 52.152 117.346 52.336 116.562 52.336ZM129.668 52.24C128.788 52.24 128.1 51.968 127.604 51.424C127.108 50.88 126.86 50.112 126.86 49.12V42.208H124.676V41.368C126.436 41.144 127.452 40.224 127.724 38.608H128.612V40.624H132.044V42.208H128.612V48.736C128.612 49.376 128.756 49.872 129.044 50.224C129.332 50.56 129.732 50.728 130.244 50.728C131.012 50.728 131.708 50.392 132.332 49.72L132.788 50.152C132.308 50.888 131.828 51.424 131.348 51.76C130.884 52.08 130.324 52.24 129.668 52.24ZM138.833 52.24C137.953 52.24 137.265 51.968 136.769 51.424C136.273 50.88 136.025 50.112 136.025 49.12V42.208H133.841V41.368C135.601 41.144 136.617 40.224 136.889 38.608H137.777V40.624H141.209V42.208H137.777V48.736C137.777 49.376 137.921 49.872 138.209 50.224C138.497 50.56 138.897 50.728 139.409 50.728C140.177 50.728 140.873 50.392 141.497 49.72L141.953 50.152C141.473 50.888 140.993 51.424 140.513 51.76C140.049 52.08 139.489 52.24 138.833 52.24ZM152.563 50.68C151.571 51.784 150.259 52.336 148.627 52.336C146.995 52.336 145.683 51.792 144.691 50.704C143.699 49.6 143.203 48.152 143.203 46.36C143.203 44.552 143.699 43.096 144.691 41.992C145.699 40.888 147.019 40.336 148.651 40.336C150.283 40.336 151.595 40.888 152.587 41.992C153.579 43.08 154.075 44.52 154.075 46.312C154.075 48.12 153.571 49.576 152.563 50.68ZM145.291 45.928C145.291 47.432 145.595 48.728 146.203 49.816C146.827 50.888 147.699 51.424 148.819 51.424C149.667 51.424 150.403 51.056 151.027 50.32C151.667 49.568 151.987 48.376 151.987 46.744C151.987 45.24 151.675 43.952 151.051 42.88C150.443 41.792 149.579 41.248 148.459 41.248C147.611 41.248 146.867 41.624 146.227 42.376C145.603 43.112 145.291 44.296 145.291 45.928ZM155.782 51.352C156.55 51.288 157.038 51.152 157.246 50.944C157.454 50.736 157.558 50.296 157.558 49.624V43.36C157.558 42.672 157.446 42.232 157.222 42.04C157.014 41.848 156.534 41.752 155.782 41.752V41.2L158.734 40.48H159.31V42.64H159.334C160.198 41.104 161.406 40.336 162.958 40.336C164.046 40.336 164.894 40.68 165.502 41.368C166.126 42.056 166.438 43.04 166.438 44.32V49.624C166.438 50.296 166.534 50.736 166.726 50.944C166.918 51.152 167.374 51.288 168.094 51.352V52H162.958V51.352C163.71 51.288 164.182 51.16 164.374 50.968C164.582 50.76 164.686 50.312 164.686 49.624V44.728C164.686 43.816 164.478 43.128 164.062 42.664C163.662 42.184 163.086 41.944 162.334 41.944C161.246 41.944 160.238 42.496 159.31 43.6V49.624C159.31 50.296 159.414 50.736 159.622 50.944C159.83 51.152 160.318 51.288 161.086 51.352V52H155.782V51.352ZM183.699 52.336C181.107 52.336 179.027 51.568 177.459 50.032C175.891 48.496 175.107 46.472 175.107 43.96C175.107 41.416 175.907 39.344 177.507 37.744C179.107 36.144 181.187 35.344 183.747 35.344C184.563 35.344 185.331 35.424 186.051 35.584C186.771 35.744 187.339 35.912 187.755 36.088C188.187 36.248 188.443 36.328 188.523 36.328C188.667 36.328 188.771 36.28 188.835 36.184C188.899 36.072 188.963 35.864 189.027 35.56H189.939V40.768H188.955C188.651 39.248 188.067 38.128 187.203 37.408C186.339 36.688 185.179 36.328 183.723 36.328C181.787 36.328 180.259 36.992 179.139 38.32C178.019 39.648 177.459 41.472 177.459 43.792C177.459 46.144 178.035 47.992 179.187 49.336C180.355 50.68 181.939 51.352 183.939 51.352C185.459 51.352 186.651 50.952 187.515 50.152C188.379 49.336 188.987 48.048 189.339 46.288H190.347L190.179 50.824C188.259 51.832 186.099 52.336 183.699 52.336ZM192.344 51.352C193.048 51.288 193.512 51.16 193.736 50.968C193.96 50.76 194.072 50.328 194.072 49.672V37.336C194.024 36.936 193.88 36.672 193.64 36.544C193.416 36.416 192.992 36.352 192.368 36.352V35.8L195.296 34.96H195.824V42.64C196.688 41.104 197.896 40.336 199.448 40.336C200.536 40.336 201.384 40.68 201.992 41.368C202.616 42.056 202.928 43.04 202.928 44.32V49.624C202.928 50.296 203.024 50.736 203.216 50.944C203.408 51.152 203.864 51.288 204.584 51.352V52H199.448V51.352C200.2 51.288 200.672 51.16 200.864 50.968C201.072 50.76 201.176 50.312 201.176 49.624V44.728C201.176 43.816 200.968 43.128 200.552 42.664C200.152 42.184 199.576 41.944 198.824 41.944C197.752 41.944 196.752 42.488 195.824 43.576V49.672C195.824 50.344 195.92 50.776 196.112 50.968C196.304 51.16 196.76 51.288 197.48 51.352V52H192.344V51.352ZM214.914 52.24C214.338 52.24 213.866 52.056 213.498 51.688C213.13 51.32 212.922 50.768 212.874 50.032C212.522 50.768 212.05 51.336 211.458 51.736C210.866 52.136 210.226 52.336 209.538 52.336C208.69 52.336 208.002 52.104 207.474 51.64C206.962 51.176 206.706 50.552 206.706 49.768C206.706 48.968 206.978 48.32 207.522 47.824C208.082 47.328 208.922 46.896 210.042 46.528L212.874 45.616V44.464C212.874 42.512 212.002 41.536 210.258 41.536C209.41 41.536 208.642 41.76 207.954 42.208C208.002 42.56 208.194 42.936 208.53 43.336C208.882 43.72 209.058 44.072 209.058 44.392C209.058 44.744 208.93 45.048 208.674 45.304C208.418 45.544 208.106 45.664 207.738 45.664C207.306 45.664 206.962 45.512 206.706 45.208C206.45 44.904 206.322 44.512 206.322 44.032C206.322 43.056 206.81 42.2 207.786 41.464C208.762 40.712 209.818 40.336 210.954 40.336C212.09 40.336 212.986 40.648 213.642 41.272C214.298 41.896 214.626 42.864 214.626 44.176V49.6C214.626 50.064 214.682 50.384 214.794 50.56C214.922 50.736 215.122 50.824 215.394 50.824C215.682 50.824 215.906 50.712 216.066 50.488C216.226 50.264 216.37 49.888 216.498 49.36L217.146 49.552C217.002 50.464 216.77 51.144 216.45 51.592C216.146 52.024 215.634 52.24 214.914 52.24ZM208.602 49.36C208.602 49.84 208.746 50.216 209.034 50.488C209.322 50.744 209.722 50.872 210.234 50.872C211.29 50.872 212.17 50.216 212.874 48.904V46.552L210.834 47.272C210.05 47.544 209.482 47.832 209.13 48.136C208.778 48.44 208.602 48.848 208.602 49.36ZM218.529 43.192C218.193 42.408 217.929 41.904 217.737 41.68C217.561 41.44 217.321 41.304 217.017 41.272V40.624H221.721V41.272C220.729 41.288 220.233 41.576 220.233 42.136C220.233 42.392 220.345 42.808 220.569 43.384L223.185 50.08L225.849 43.288C226.073 42.712 226.185 42.304 226.185 42.064C226.185 41.776 226.065 41.576 225.825 41.464C225.585 41.352 225.193 41.288 224.649 41.272V40.624H228.513V41.272C228.209 41.304 227.953 41.416 227.745 41.608C227.537 41.8 227.313 42.216 227.073 42.856L223.401 52.096H222.177L218.529 43.192ZM234.635 52.336C233.083 52.336 231.843 51.816 230.915 50.776C230.003 49.72 229.547 48.296 229.547 46.504C229.547 44.648 230.011 43.16 230.939 42.04C231.867 40.904 233.107 40.336 234.659 40.336C236.051 40.336 237.123 40.76 237.875 41.608C238.627 42.456 238.995 43.616 238.979 45.088H231.251C231.235 45.248 231.227 45.496 231.227 45.832C231.227 47.24 231.563 48.344 232.235 49.144C232.923 49.944 233.835 50.344 234.971 50.344C236.555 50.344 237.627 49.656 238.187 48.28L238.859 48.472C238.587 49.752 238.115 50.72 237.443 51.376C236.771 52.016 235.835 52.336 234.635 52.336ZM231.395 44.176H237.011C237.011 43.28 236.803 42.568 236.387 42.04C235.987 41.496 235.347 41.224 234.467 41.224C233.731 41.224 233.083 41.48 232.523 41.992C231.979 42.504 231.603 43.232 231.395 44.176ZM241.345 52V50.296L248.473 42.328H244.873C243.673 42.328 242.929 42.432 242.641 42.64C242.353 42.848 242.153 43.424 242.041 44.368H241.105V40.624H249.913V42.328L242.785 50.296H246.865C247.905 50.296 248.577 50.152 248.881 49.864C249.201 49.56 249.433 48.856 249.577 47.752H250.537L250.345 52H241.345Z" fill="white"/>
    <path d="M700.968 219H673.32V215.64C677.352 215.512 679.848 215.032 680.808 214.2C681.768 213.304 682.248 211.096 682.248 207.576V165.144C682.248 161.624 681.768 159.448 680.808 158.616C679.848 157.72 677.352 157.208 673.32 157.08V153.72H699.816C712.168 153.72 721.768 156.632 728.616 162.456C735.464 168.216 738.888 176.344 738.888 186.84C738.888 196.824 735.496 204.696 728.712 210.456C721.992 216.152 712.744 219 700.968 219ZM702.312 215.16C709.736 215.16 715.752 212.568 720.36 207.384C725.032 202.136 727.368 195.32 727.368 186.936C727.368 177.848 724.776 170.712 719.592 165.528C714.472 160.344 707.432 157.752 698.472 157.752H692.232V204.984C692.232 208.696 692.968 211.32 694.44 212.856C695.976 214.392 698.6 215.16 702.312 215.16ZM785.671 191.352H755.815C755.751 191.864 755.719 192.696 755.719 193.848C755.719 199.032 756.999 203.192 759.559 206.328C762.183 209.464 765.671 211.032 770.023 211.032C772.839 211.032 775.335 210.36 777.511 209.016C779.687 207.672 781.287 205.816 782.311 203.448L785.383 204.312C784.359 209.752 782.471 213.784 779.719 216.408C776.967 219.032 773.127 220.344 768.199 220.344C761.863 220.344 756.839 218.264 753.127 214.104C749.415 209.88 747.559 204.28 747.559 197.304C747.559 189.752 749.383 183.704 753.031 179.16C756.743 174.616 761.799 172.344 768.199 172.344C773.831 172.344 778.151 174.008 781.159 177.336C784.231 180.6 785.735 185.272 785.671 191.352ZM767.143 176.28C764.455 176.28 762.151 177.24 760.231 179.16C758.311 181.016 756.999 183.704 756.295 187.224H776.263C776.263 183.832 775.495 181.176 773.959 179.256C772.487 177.272 770.215 176.28 767.143 176.28ZM831.421 191.352H801.565C801.501 191.864 801.469 192.696 801.469 193.848C801.469 199.032 802.749 203.192 805.309 206.328C807.933 209.464 811.421 211.032 815.773 211.032C818.589 211.032 821.085 210.36 823.261 209.016C825.437 207.672 827.037 205.816 828.061 203.448L831.133 204.312C830.109 209.752 828.221 213.784 825.469 216.408C822.717 219.032 818.877 220.344 813.949 220.344C807.613 220.344 802.589 218.264 798.877 214.104C795.165 209.88 793.309 204.28 793.309 197.304C793.309 189.752 795.133 183.704 798.781 179.16C802.493 174.616 807.549 172.344 813.949 172.344C819.581 172.344 823.901 174.008 826.909 177.336C829.981 180.6 831.485 185.272 831.421 191.352ZM812.893 176.28C810.205 176.28 807.901 177.24 805.981 179.16C804.061 181.016 802.749 183.704 802.045 187.224H822.013C822.013 183.832 821.245 181.176 819.709 179.256C818.237 177.272 815.965 176.28 812.893 176.28ZM866.803 172.344C871.987 172.344 876.179 174.392 879.379 178.488C882.643 182.584 884.275 188.12 884.275 195.096C884.275 203.032 882.451 209.24 878.803 213.72C875.155 218.136 869.939 220.344 863.155 220.344C858.419 220.344 854.707 219.256 852.019 217.08V227.736C852.019 231 852.595 233.112 853.747 234.072C854.963 235.032 857.747 235.64 862.099 235.896V238.776H837.139V235.896C839.891 235.64 841.651 235.032 842.419 234.072C843.187 233.112 843.571 231 843.571 227.736V185.4C843.571 182.648 843.155 180.856 842.323 180.024C841.491 179.128 839.763 178.68 837.139 178.68V176.184L849.331 172.92H852.019V181.56C855.475 175.416 860.403 172.344 866.803 172.344ZM862.483 216.312C866.515 216.312 869.587 214.712 871.699 211.512C873.811 208.248 874.867 203.672 874.867 197.784C874.867 192.216 873.843 187.864 871.795 184.728C869.747 181.592 866.931 180.024 863.347 180.024C859.059 180.024 855.283 181.848 852.019 185.496V202.968C852.019 207.192 852.979 210.488 854.899 212.856C856.819 215.16 859.347 216.312 862.483 216.312ZM726.408 328H673.32V324.64C677.352 324.512 679.848 324.032 680.808 323.2C681.768 322.304 682.248 320.096 682.248 316.576V274.144C682.248 270.624 681.768 268.448 680.808 267.616C679.848 266.72 677.352 266.208 673.32 266.08V262.72H702.216V266.08C697.736 266.144 694.952 266.624 693.864 267.52C692.776 268.416 692.232 270.624 692.232 274.144V316C692.232 319.008 692.84 321.056 694.056 322.144C695.336 323.232 697.672 323.776 701.064 323.776H709.8C713.256 323.776 716.072 322.592 718.248 320.224C720.424 317.792 722.376 312.768 724.104 305.152H728.904L726.408 328ZM773.296 300.352H743.44C743.376 300.864 743.344 301.696 743.344 302.848C743.344 308.032 744.624 312.192 747.184 315.328C749.808 318.464 753.296 320.032 757.648 320.032C760.464 320.032 762.96 319.36 765.136 318.016C767.312 316.672 768.912 314.816 769.936 312.448L773.008 313.312C771.984 318.752 770.096 322.784 767.344 325.408C764.592 328.032 760.752 329.344 755.824 329.344C749.488 329.344 744.464 327.264 740.752 323.104C737.04 318.88 735.184 313.28 735.184 306.304C735.184 298.752 737.008 292.704 740.656 288.16C744.368 283.616 749.424 281.344 755.824 281.344C761.456 281.344 765.776 283.008 768.784 286.336C771.856 289.6 773.36 294.272 773.296 300.352ZM754.768 285.28C752.08 285.28 749.776 286.24 747.856 288.16C745.936 290.016 744.624 292.704 743.92 296.224H763.888C763.888 292.832 763.12 290.176 761.584 288.256C760.112 286.272 757.84 285.28 754.768 285.28ZM821.638 317.44L824.518 318.208C824.006 321.856 823.078 324.576 821.734 326.368C820.454 328.096 818.31 328.96 815.302 328.96C810.31 328.96 807.43 326.24 806.662 320.8C805.254 323.552 803.398 325.664 801.094 327.136C798.79 328.608 796.326 329.344 793.702 329.344C790.374 329.344 787.686 328.416 785.638 326.56C783.59 324.704 782.566 322.208 782.566 319.072C782.566 315.808 783.654 313.216 785.83 311.296C788.006 309.312 791.398 307.584 796.006 306.112L806.47 302.848V298.432C806.47 290.944 803.046 287.2 796.198 287.2C792.678 287.2 789.798 287.84 787.558 289.12C787.75 290.528 788.582 292.032 790.054 293.632C791.59 295.168 792.358 296.576 792.358 297.856C792.358 299.328 791.782 300.608 790.63 301.696C789.478 302.72 788.07 303.232 786.406 303.232C784.614 303.232 783.174 302.624 782.086 301.408C780.998 300.128 780.454 298.496 780.454 296.512C780.454 292.48 782.47 288.96 786.502 285.952C790.534 282.88 794.95 281.344 799.75 281.344C804.358 281.344 808.038 282.624 810.79 285.184C813.542 287.68 814.918 291.648 814.918 297.088V318.016C814.918 321.024 815.814 322.528 817.606 322.528C819.398 322.528 820.742 320.832 821.638 317.44ZM797.542 322.528C800.934 322.528 803.91 320.448 806.47 316.288V306.976L799.75 309.376C796.806 310.4 794.694 311.456 793.414 312.544C792.134 313.568 791.494 315.04 791.494 316.96C791.494 318.688 792.038 320.064 793.126 321.088C794.214 322.048 795.686 322.528 797.542 322.528ZM855.528 281.344C857.512 281.344 859.144 281.92 860.424 283.072C861.768 284.224 862.44 285.76 862.44 287.68C862.44 289.536 861.864 291.072 860.712 292.288C859.56 293.44 858.184 294.016 856.584 294.016C855.176 294.016 853.864 293.248 852.648 291.712C851.496 290.112 850.568 289.152 849.864 288.832C846.856 292.096 844.488 296.736 842.76 302.752V317.92C842.76 320.672 843.272 322.496 844.296 323.392C845.384 324.288 847.592 324.864 850.92 325.12V328H827.88V325.12C830.568 324.864 832.296 324.288 833.064 323.392C833.896 322.496 834.312 320.672 834.312 317.92V294.4C834.312 291.648 833.896 289.856 833.064 289.024C832.232 288.128 830.504 287.68 827.88 287.68V285.184L840.072 281.92H842.76V296.032C843.976 292.192 845.704 288.8 847.944 285.856C850.184 282.848 852.712 281.344 855.528 281.344ZM910.071 297.088V317.92C910.071 320.672 910.455 322.496 911.223 323.392C912.055 324.288 913.815 324.864 916.503 325.12V328H895.575V325.12C898.135 324.864 899.767 324.32 900.471 323.488C901.239 322.592 901.623 320.736 901.623 317.92V298.72C901.623 292.256 898.807 289.024 893.175 289.024C889.079 289.024 885.399 290.848 882.135 294.496V317.92C882.135 320.672 882.519 322.496 883.287 323.392C884.119 324.288 885.815 324.864 888.375 325.12V328H867.255V325.12C869.943 324.864 871.671 324.288 872.439 323.392C873.271 322.496 873.687 320.672 873.687 317.92V294.4C873.687 291.648 873.271 289.856 872.439 289.024C871.607 288.128 869.879 287.68 867.255 287.68V285.184L879.447 281.92H882.135V290.56C885.463 284.416 890.263 281.344 896.535 281.344C900.887 281.344 904.215 282.688 906.519 285.376C908.887 288 910.071 291.904 910.071 297.088ZM937.562 272.8C936.41 273.952 934.906 274.528 933.049 274.528C931.194 274.528 929.658 273.952 928.442 272.8C927.29 271.584 926.714 270.048 926.714 268.192C926.714 266.336 927.29 264.832 928.442 263.68C929.658 262.464 931.194 261.856 933.049 261.856C934.906 261.856 936.41 262.464 937.562 263.68C938.778 264.832 939.386 266.336 939.386 268.192C939.386 270.048 938.778 271.584 937.562 272.8ZM944.666 328H921.818V325.12C924.826 324.928 926.778 324.384 927.674 323.488C928.57 322.528 929.018 320.352 929.018 316.96V294.4C929.018 291.648 928.538 289.856 927.578 289.024C926.682 288.128 924.762 287.68 921.818 287.68V285.184L934.778 281.92H937.466V316.96C937.466 320.352 937.914 322.528 938.81 323.488C939.706 324.384 941.658 324.928 944.666 325.12V328ZM993.227 297.088V317.92C993.227 320.672 993.611 322.496 994.379 323.392C995.211 324.288 996.971 324.864 999.659 325.12V328H978.731V325.12C981.291 324.864 982.923 324.32 983.627 323.488C984.395 322.592 984.779 320.736 984.779 317.92V298.72C984.779 292.256 981.963 289.024 976.331 289.024C972.235 289.024 968.555 290.848 965.291 294.496V317.92C965.291 320.672 965.675 322.496 966.443 323.392C967.275 324.288 968.971 324.864 971.531 325.12V328H950.411V325.12C953.099 324.864 954.827 324.288 955.595 323.392C956.427 322.496 956.843 320.672 956.843 317.92V294.4C956.843 291.648 956.427 289.856 955.595 289.024C954.763 288.128 953.035 287.68 950.411 287.68V285.184L962.603 281.92H965.291V290.56C968.619 284.416 973.419 281.344 979.691 281.344C984.043 281.344 987.371 282.688 989.675 285.376C992.043 288 993.227 291.904 993.227 297.088ZM1033.29 282.496H1050.38V289.984H1042.22C1043.25 291.968 1043.76 294.24 1043.76 296.8C1043.76 301.472 1042.13 305.216 1038.86 308.032C1035.6 310.848 1031.25 312.256 1025.81 312.256C1022.48 312.256 1019.53 311.712 1016.97 310.624C1014.86 312.224 1013.81 313.76 1013.81 315.232C1013.81 318.176 1015.82 319.648 1019.85 319.648H1036.75C1045.84 319.648 1050.38 323.584 1050.38 331.456C1050.38 336.768 1048.21 340.96 1043.85 344.032C1039.57 347.168 1033.61 348.736 1026 348.736C1019.66 348.736 1014.48 347.584 1010.45 345.28C1006.48 343.04 1004.49 340.096 1004.49 336.448C1004.49 332.736 1006.96 329.76 1011.89 327.52C1007.85 326.176 1005.84 323.52 1005.84 319.552C1005.84 315.328 1008.69 311.904 1014.38 309.28C1010.03 306.464 1007.85 302.304 1007.85 296.8C1007.85 292.128 1009.49 288.384 1012.75 285.568C1016.01 282.752 1020.37 281.344 1025.81 281.344C1028.56 281.344 1031.05 281.728 1033.29 282.496ZM1026.29 308.416C1028.78 308.416 1030.8 307.52 1032.33 305.728C1033.93 303.872 1034.73 301.152 1034.73 297.568C1034.73 294.112 1033.97 291.2 1032.43 288.832C1030.89 286.4 1028.53 285.184 1025.33 285.184C1022.83 285.184 1020.78 286.112 1019.18 287.968C1017.65 289.76 1016.88 292.448 1016.88 296.032C1016.88 299.488 1017.65 302.432 1019.18 304.864C1020.72 307.232 1023.09 308.416 1026.29 308.416ZM1033.49 328.384H1018.03C1017.71 328.384 1017.23 328.352 1016.59 328.288C1016.01 328.288 1015.6 328.288 1015.34 328.288C1013.42 330.336 1012.46 332.64 1012.46 335.2C1012.46 338.208 1013.65 340.544 1016.01 342.208C1018.45 343.872 1021.97 344.704 1026.57 344.704C1031.57 344.704 1035.47 343.776 1038.29 341.92C1041.17 340.064 1042.61 337.664 1042.61 334.72C1042.61 330.496 1039.57 328.384 1033.49 328.384ZM1071.99 294.88C1070.77 296.096 1069.24 296.704 1067.38 296.704C1065.53 296.704 1063.99 296.096 1062.77 294.88C1061.56 293.664 1060.95 292.128 1060.95 290.272C1060.95 288.352 1061.56 286.784 1062.77 285.568C1063.99 284.288 1065.53 283.648 1067.38 283.648C1069.24 283.648 1070.77 284.288 1071.99 285.568C1073.21 286.784 1073.81 288.352 1073.81 290.272C1073.81 292.128 1073.21 293.664 1071.99 294.88ZM1071.99 327.136C1070.77 328.352 1069.24 328.96 1067.38 328.96C1065.53 328.96 1063.99 328.352 1062.77 327.136C1061.56 325.92 1060.95 324.384 1060.95 322.528C1060.95 320.608 1061.56 319.04 1062.77 317.824C1063.99 316.544 1065.53 315.904 1067.38 315.904C1069.24 315.904 1070.77 316.544 1071.99 317.824C1073.21 319.04 1073.81 320.608 1073.81 322.528C1073.81 324.384 1073.21 325.92 1071.99 327.136ZM745.896 382.76L749.64 425C749.96 428.392 750.664 430.664 751.752 431.816C752.84 432.968 754.888 433.576 757.896 433.64V437H729.96V433.64C734.248 433.512 737.032 432.872 738.312 431.72C739.592 430.568 740.072 428.168 739.752 424.52L736.104 382.76L716.52 437.192H709.416L689.736 382.376L686.088 423.464C685.768 427.368 686.248 429.992 687.528 431.336C688.808 432.68 691.528 433.448 695.688 433.64V437H672.36V433.64C675.624 433.512 677.8 432.808 678.888 431.528C680.04 430.184 680.808 427.496 681.192 423.464L684.84 382.76C685.096 379.56 684.776 377.512 683.88 376.616C682.984 375.72 680.808 375.208 677.352 375.08V371.72H696.648L715.656 425.096L734.76 371.72H753.768V375.08C750.184 375.208 747.912 375.752 746.952 376.712C745.992 377.608 745.64 379.624 745.896 382.76ZM803.225 391.496V425.672C803.225 428.616 803.673 430.536 804.569 431.432C805.529 432.264 807.513 432.68 810.521 432.68V435.56L796.121 437.576L794.777 436.52V429.128C793.049 432.328 791.097 434.664 788.921 436.136C786.745 437.608 784.057 438.344 780.857 438.344C776.761 438.344 773.497 437 771.065 434.312C768.633 431.624 767.417 427.72 767.417 422.6V400.232C767.417 398.312 767.033 396.936 766.265 396.104C765.561 395.272 764.217 394.632 762.233 394.184V391.496H775.865V420.008C775.865 423.976 776.537 426.76 777.881 428.36C779.225 429.896 781.241 430.664 783.929 430.664C787.833 430.664 791.449 428.776 794.777 425V400.232C794.777 397.992 794.361 396.52 793.529 395.816C792.761 395.048 790.969 394.536 788.153 394.28V391.496H803.225ZM830.017 425.96C830.017 429.352 830.465 431.528 831.361 432.488C832.257 433.384 834.209 433.928 837.217 434.12V437H814.369V434.12C817.377 433.928 819.329 433.384 820.225 432.488C821.121 431.528 821.569 429.352 821.569 425.96V381.32C821.569 378.76 821.153 377.096 820.321 376.328C819.489 375.496 817.761 375.08 815.137 375.08V372.584L827.713 368.84H830.017V425.96ZM872.169 427.112L874.089 428.84C872.169 431.976 870.217 434.28 868.233 435.752C866.249 437.224 863.881 437.96 861.129 437.96C857.481 437.96 854.633 436.84 852.585 434.6C850.537 432.296 849.513 429.096 849.513 425V398.984H841.545V395.048C845.001 394.6 847.753 393.384 849.801 391.4C851.913 389.352 853.225 386.696 853.737 383.432H857.961V391.496H871.113V398.984H857.961V422.888C857.961 428.136 860.073 430.76 864.297 430.76C867.241 430.76 869.865 429.544 872.169 427.112ZM894.624 381.8C893.472 382.952 891.968 383.528 890.112 383.528C888.256 383.528 886.72 382.952 885.504 381.8C884.352 380.584 883.776 379.048 883.776 377.192C883.776 375.336 884.352 373.832 885.504 372.68C886.72 371.464 888.256 370.856 890.112 370.856C891.968 370.856 893.472 371.464 894.624 372.68C895.84 373.832 896.448 375.336 896.448 377.192C896.448 379.048 895.84 380.584 894.624 381.8ZM901.728 437H878.88V434.12C881.888 433.928 883.84 433.384 884.736 432.488C885.632 431.528 886.08 429.352 886.08 425.96V403.4C886.08 400.648 885.6 398.856 884.64 398.024C883.744 397.128 881.824 396.68 878.88 396.68V394.184L891.84 390.92H894.528V425.96C894.528 429.352 894.976 431.528 895.872 432.488C896.768 433.384 898.72 433.928 901.728 434.12V437ZM908.914 408.104H933.874V415.208H908.914V408.104ZM955.267 425.96C955.267 429.352 955.715 431.528 956.611 432.488C957.507 433.384 959.459 433.928 962.467 434.12V437H939.619V434.12C942.627 433.928 944.579 433.384 945.475 432.488C946.371 431.528 946.819 429.352 946.819 425.96V381.32C946.819 378.76 946.403 377.096 945.571 376.328C944.739 375.496 943.011 375.08 940.387 375.08V372.584L952.963 368.84H955.267V425.96ZM1008.95 426.44L1011.83 427.208C1011.32 430.856 1010.39 433.576 1009.05 435.368C1007.77 437.096 1005.62 437.96 1002.61 437.96C997.622 437.96 994.742 435.24 993.974 429.8C992.566 432.552 990.71 434.664 988.406 436.136C986.102 437.608 983.638 438.344 981.014 438.344C977.686 438.344 974.998 437.416 972.95 435.56C970.902 433.704 969.878 431.208 969.878 428.072C969.878 424.808 970.966 422.216 973.142 420.296C975.318 418.312 978.71 416.584 983.318 415.112L993.782 411.848V407.432C993.782 399.944 990.358 396.2 983.51 396.2C979.99 396.2 977.11 396.84 974.87 398.12C975.062 399.528 975.894 401.032 977.366 402.632C978.902 404.168 979.67 405.576 979.67 406.856C979.67 408.328 979.094 409.608 977.942 410.696C976.79 411.72 975.382 412.232 973.718 412.232C971.926 412.232 970.486 411.624 969.398 410.408C968.31 409.128 967.766 407.496 967.766 405.512C967.766 401.48 969.782 397.96 973.814 394.952C977.846 391.88 982.262 390.344 987.062 390.344C991.67 390.344 995.35 391.624 998.102 394.184C1000.85 396.68 1002.23 400.648 1002.23 406.088V427.016C1002.23 430.024 1003.13 431.528 1004.92 431.528C1006.71 431.528 1008.05 429.832 1008.95 426.44ZM984.854 431.528C988.246 431.528 991.222 429.448 993.782 425.288V415.976L987.062 418.376C984.118 419.4 982.006 420.456 980.726 421.544C979.446 422.568 978.806 424.04 978.806 425.96C978.806 427.688 979.35 429.064 980.438 430.088C981.526 431.048 982.998 431.528 984.854 431.528ZM1038.52 394.376V391.496H1055.03V394.376C1053.62 394.504 1052.47 395.112 1051.57 396.2C1050.74 397.224 1049.68 399.368 1048.4 402.632L1034.2 438.536C1029.2 451.272 1023 457.64 1015.57 457.64C1012.95 457.64 1010.77 456.968 1009.04 455.624C1007.38 454.344 1006.55 452.648 1006.55 450.536C1006.55 448.872 1007.03 447.56 1007.99 446.6C1008.88 445.704 1010.13 445.256 1011.73 445.256C1013.01 445.256 1014.04 445.608 1014.8 446.312C1015.57 447.08 1016.4 448.072 1017.3 449.288C1018.2 450.568 1019.19 451.56 1020.28 452.264C1022.26 451.048 1023.99 449.096 1025.46 446.408C1027 443.784 1028.76 440.008 1030.74 435.08L1017.4 403.592C1015.92 400.008 1014.64 397.608 1013.56 396.392C1012.53 395.112 1011.28 394.44 1009.81 394.376V391.496H1031.41V394.376C1027.38 394.568 1025.36 395.944 1025.36 398.504C1025.36 399.272 1025.56 400.136 1025.94 401.096L1035.16 424.04L1043.8 402.152C1044.31 400.808 1044.56 399.688 1044.56 398.792C1044.56 395.976 1042.55 394.504 1038.52 394.376ZM1096.55 409.352H1066.69C1066.63 409.864 1066.59 410.696 1066.59 411.848C1066.59 417.032 1067.87 421.192 1070.43 424.328C1073.06 427.464 1076.55 429.032 1080.9 429.032C1083.71 429.032 1086.21 428.36 1088.39 427.016C1090.56 425.672 1092.16 423.816 1093.19 421.448L1096.26 422.312C1095.23 427.752 1093.35 431.784 1090.59 434.408C1087.84 437.032 1084 438.344 1079.07 438.344C1072.74 438.344 1067.71 436.264 1064 432.104C1060.29 427.88 1058.43 422.28 1058.43 415.304C1058.43 407.752 1060.26 401.704 1063.91 397.16C1067.62 392.616 1072.67 390.344 1079.07 390.344C1084.71 390.344 1089.03 392.008 1092.03 395.336C1095.11 398.6 1096.61 403.272 1096.55 409.352ZM1078.02 394.28C1075.33 394.28 1073.03 395.24 1071.11 397.16C1069.19 399.016 1067.87 401.704 1067.17 405.224H1087.14C1087.14 401.832 1086.37 399.176 1084.83 397.256C1083.36 395.272 1081.09 394.28 1078.02 394.28ZM1130.87 390.344C1132.86 390.344 1134.49 390.92 1135.77 392.072C1137.11 393.224 1137.78 394.76 1137.78 396.68C1137.78 398.536 1137.21 400.072 1136.06 401.288C1134.9 402.44 1133.53 403.016 1131.93 403.016C1130.52 403.016 1129.21 402.248 1127.99 400.712C1126.84 399.112 1125.91 398.152 1125.21 397.832C1122.2 401.096 1119.83 405.736 1118.1 411.752V426.92C1118.1 429.672 1118.62 431.496 1119.64 432.392C1120.73 433.288 1122.94 433.864 1126.26 434.12V437H1103.22V434.12C1105.91 433.864 1107.64 433.288 1108.41 432.392C1109.24 431.496 1109.66 429.672 1109.66 426.92V403.4C1109.66 400.648 1109.24 398.856 1108.41 398.024C1107.58 397.128 1105.85 396.68 1103.22 396.68V394.184L1115.42 390.92H1118.1V405.032C1119.32 401.192 1121.05 397.8 1123.29 394.856C1125.53 391.848 1128.06 390.344 1130.87 390.344ZM702.024 516.048H692.232V534.48C692.232 537.872 692.872 540.048 694.152 541.008C695.496 541.968 698.728 542.512 703.848 542.64V546H673.32V542.64C677.352 542.512 679.848 542.032 680.808 541.2C681.768 540.304 682.248 538.096 682.248 534.576V492.144C682.248 488.624 681.768 486.448 680.808 485.616C679.848 484.72 677.352 484.208 673.32 484.08V480.72H704.424C711.656 480.72 717.128 482.192 720.84 485.136C724.616 488.016 726.504 492.272 726.504 497.904C726.504 503.472 724.296 507.888 719.88 511.152C715.464 514.416 709.512 516.048 702.024 516.048ZM702.6 484.752H692.232V512.016H700.2C705.064 512.016 708.84 510.768 711.528 508.272C714.28 505.776 715.656 502.32 715.656 497.904C715.656 493.424 714.6 490.128 712.488 488.016C710.44 485.84 707.144 484.752 702.6 484.752ZM767.483 518.352H737.627C737.563 518.864 737.531 519.696 737.531 520.848C737.531 526.032 738.811 530.192 741.371 533.328C743.995 536.464 747.483 538.032 751.835 538.032C754.651 538.032 757.147 537.36 759.323 536.016C761.499 534.672 763.099 532.816 764.123 530.448L767.195 531.312C766.171 536.752 764.283 540.784 761.531 543.408C758.779 546.032 754.939 547.344 750.011 547.344C743.675 547.344 738.651 545.264 734.939 541.104C731.227 536.88 729.371 531.28 729.371 524.304C729.371 516.752 731.195 510.704 734.843 506.16C738.555 501.616 743.611 499.344 750.011 499.344C755.643 499.344 759.963 501.008 762.971 504.336C766.043 507.6 767.547 512.272 767.483 518.352ZM748.955 503.28C746.267 503.28 743.963 504.24 742.043 506.16C740.123 508.016 738.811 510.704 738.107 514.224H758.075C758.075 510.832 757.307 508.176 755.771 506.256C754.299 504.272 752.027 503.28 748.955 503.28ZM801.809 499.344C803.793 499.344 805.425 499.92 806.705 501.072C808.049 502.224 808.721 503.76 808.721 505.68C808.721 507.536 808.145 509.072 806.993 510.288C805.841 511.44 804.465 512.016 802.865 512.016C801.457 512.016 800.145 511.248 798.929 509.712C797.777 508.112 796.849 507.152 796.145 506.832C793.137 510.096 790.769 514.736 789.041 520.752V535.92C789.041 538.672 789.553 540.496 790.577 541.392C791.665 542.288 793.873 542.864 797.201 543.12V546H774.161V543.12C776.849 542.864 778.577 542.288 779.345 541.392C780.177 540.496 780.593 538.672 780.593 535.92V512.4C780.593 509.648 780.177 507.856 779.345 507.024C778.513 506.128 776.785 505.68 774.161 505.68V503.184L786.353 499.92H789.041V514.032C790.257 510.192 791.985 506.8 794.225 503.856C796.465 500.848 798.993 499.344 801.809 499.344ZM834.199 547.344C827.863 547.344 822.839 545.264 819.127 541.104C815.415 536.88 813.559 531.248 813.559 524.208C813.559 516.784 815.607 510.8 819.703 506.256C823.799 501.648 829.143 499.344 835.735 499.344C840.279 499.344 843.991 500.464 846.871 502.704C849.751 504.944 851.191 507.824 851.191 511.344C851.191 513.584 850.615 515.376 849.463 516.72C848.311 518.064 846.775 518.736 844.855 518.736C843.191 518.736 841.815 518.224 840.727 517.2C839.639 516.176 839.095 514.832 839.095 513.168C839.095 511.76 839.671 510.288 840.823 508.752C841.975 507.152 842.679 506 842.935 505.296C841.271 504.144 839.063 503.568 836.311 503.568C831.831 503.568 828.279 505.104 825.655 508.176C823.031 511.248 821.719 515.376 821.719 520.56C821.719 525.872 822.999 530.128 825.559 533.328C828.183 536.464 831.671 538.032 836.023 538.032C838.839 538.032 841.335 537.36 843.511 536.016C845.687 534.672 847.287 532.816 848.311 530.448L851.383 531.312C850.359 536.752 848.471 540.784 845.719 543.408C842.967 546.032 839.127 547.344 834.199 547.344ZM897.14 518.352H867.284C867.22 518.864 867.188 519.696 867.188 520.848C867.188 526.032 868.468 530.192 871.028 533.328C873.652 536.464 877.14 538.032 881.492 538.032C884.308 538.032 886.804 537.36 888.98 536.016C891.156 534.672 892.756 532.816 893.78 530.448L896.852 531.312C895.828 536.752 893.94 540.784 891.188 543.408C888.436 546.032 884.596 547.344 879.668 547.344C873.332 547.344 868.308 545.264 864.596 541.104C860.884 536.88 859.028 531.28 859.028 524.304C859.028 516.752 860.852 510.704 864.5 506.16C868.212 501.616 873.268 499.344 879.668 499.344C885.3 499.344 889.62 501.008 892.628 504.336C895.7 507.6 897.204 512.272 897.14 518.352ZM878.612 503.28C875.924 503.28 873.62 504.24 871.7 506.16C869.78 508.016 868.468 510.704 867.764 514.224H887.732C887.732 510.832 886.964 508.176 885.428 506.256C883.956 504.272 881.684 503.28 878.612 503.28ZM932.522 499.344C937.706 499.344 941.898 501.392 945.098 505.488C948.362 509.584 949.994 515.12 949.994 522.096C949.994 530.032 948.17 536.24 944.522 540.72C940.874 545.136 935.658 547.344 928.874 547.344C924.138 547.344 920.426 546.256 917.738 544.08V554.736C917.738 558 918.314 560.112 919.466 561.072C920.682 562.032 923.466 562.64 927.818 562.896V565.776H902.858V562.896C905.61 562.64 907.37 562.032 908.138 561.072C908.906 560.112 909.29 558 909.29 554.736V512.4C909.29 509.648 908.874 507.856 908.042 507.024C907.21 506.128 905.482 505.68 902.858 505.68V503.184L915.049 499.92H917.738V508.56C921.194 502.416 926.122 499.344 932.522 499.344ZM928.202 543.312C932.234 543.312 935.306 541.712 937.418 538.512C939.53 535.248 940.586 530.672 940.586 524.784C940.586 519.216 939.562 514.864 937.514 511.728C935.466 508.592 932.65 507.024 929.066 507.024C924.778 507.024 921.002 508.848 917.738 512.496V529.968C917.738 534.192 918.698 537.488 920.618 539.856C922.538 542.16 925.066 543.312 928.202 543.312ZM985.419 536.112L987.339 537.84C985.419 540.976 983.467 543.28 981.483 544.752C979.499 546.224 977.131 546.96 974.379 546.96C970.731 546.96 967.883 545.84 965.835 543.6C963.787 541.296 962.763 538.096 962.763 534V507.984H954.795V504.048C958.251 503.6 961.003 502.384 963.051 500.4C965.163 498.352 966.475 495.696 966.987 492.432H971.211V500.496H984.363V507.984H971.211V531.888C971.211 537.136 973.323 539.76 977.547 539.76C980.491 539.76 983.115 538.544 985.419 536.112ZM1019.78 499.344C1021.76 499.344 1023.39 499.92 1024.67 501.072C1026.02 502.224 1026.69 503.76 1026.69 505.68C1026.69 507.536 1026.11 509.072 1024.96 510.288C1023.81 511.44 1022.43 512.016 1020.83 512.016C1019.43 512.016 1018.11 511.248 1016.9 509.712C1015.75 508.112 1014.82 507.152 1014.11 506.832C1011.11 510.096 1008.74 514.736 1007.01 520.752V535.92C1007.01 538.672 1007.52 540.496 1008.55 541.392C1009.63 542.288 1011.84 542.864 1015.17 543.12V546H992.13V543.12C994.818 542.864 996.546 542.288 997.314 541.392C998.146 540.496 998.562 538.672 998.562 535.92V512.4C998.562 509.648 998.146 507.856 997.314 507.024C996.482 506.128 994.754 505.68 992.13 505.68V503.184L1004.32 499.92H1007.01V514.032C1008.23 510.192 1009.95 506.8 1012.19 503.856C1014.43 500.848 1016.96 499.344 1019.78 499.344ZM1069.83 540.816C1065.8 545.168 1060.42 547.344 1053.7 547.344C1046.98 547.344 1041.61 545.168 1037.58 540.816C1033.54 536.464 1031.53 530.672 1031.53 523.44C1031.53 516.144 1033.54 510.32 1037.58 505.968C1041.61 501.552 1046.98 499.344 1053.7 499.344C1060.42 499.344 1065.8 501.52 1069.83 505.872C1073.86 510.224 1075.88 516.016 1075.88 523.248C1075.88 530.544 1073.86 536.4 1069.83 540.816ZM1054.66 543.312C1057.67 543.312 1060.26 541.872 1062.44 538.992C1064.68 536.112 1065.8 531.536 1065.8 525.264C1065.8 519.312 1064.65 514.192 1062.34 509.904C1060.04 505.552 1056.84 503.376 1052.74 503.376C1049.74 503.376 1047.11 504.816 1044.87 507.696C1042.7 510.576 1041.61 515.152 1041.61 521.424C1041.61 527.376 1042.76 532.528 1045.06 536.88C1047.37 541.168 1050.57 543.312 1054.66 543.312ZM1125.41 515.088V535.92C1125.41 538.672 1125.8 540.496 1126.57 541.392C1127.4 542.288 1129.16 542.864 1131.85 543.12V546H1110.92V543.12C1113.48 542.864 1115.11 542.32 1115.81 541.488C1116.58 540.592 1116.97 538.736 1116.97 535.92V516.72C1116.97 510.256 1114.15 507.024 1108.52 507.024C1104.42 507.024 1100.74 508.848 1097.48 512.496V535.92C1097.48 538.672 1097.86 540.496 1098.63 541.392C1099.46 542.288 1101.16 542.864 1103.72 543.12V546H1082.6V543.12C1085.29 542.864 1087.01 542.288 1087.78 541.392C1088.61 540.496 1089.03 538.672 1089.03 535.92V512.4C1089.03 509.648 1088.61 507.856 1087.78 507.024C1086.95 506.128 1085.22 505.68 1082.6 505.68V503.184L1094.79 499.92H1097.48V508.56C1100.81 502.416 1105.61 499.344 1111.88 499.344C1116.23 499.344 1119.56 500.688 1121.86 503.376C1124.23 506 1125.41 509.904 1125.41 515.088Z" fill="white"/>
    <path d="M131 154L130 566" stroke="white" stroke-width="4"/>
    <path d="M542 565L130 564" stroke="white" stroke-width="4"/>
    <path d="M502 405C513.046 405 522 396.046 522 385C522 373.954 513.046 365 502 365C490.954 365 482 373.954 482 385C482 396.046 490.954 405 502 405Z" fill="#C62525"/>
    <path d="M470 280C481.046 280 490 271.046 490 260C490 248.954 481.046 240 470 240C458.954 240 450 248.954 450 260C450 271.046 458.954 280 470 280Z" fill="#C62525"/>
    <path d="M419 375C430.046 375 439 366.046 439 355C439 343.954 430.046 335 419 335C407.954 335 399 343.954 399 355C399 366.046 407.954 375 419 375Z" fill="#C62525"/>
    <path d="M334 500C345.046 500 354 491.046 354 480C354 468.954 345.046 460 334 460C322.954 460 314 468.954 314 480C314 491.046 322.954 500 334 500Z" fill="#25C648"/>
    <path d="M319 420C330.046 420 339 411.046 339 400C339 388.954 330.046 380 319 380C307.954 380 299 388.954 299 400C299 411.046 307.954 420 319 420Z" fill="#25C648"/>
    <path d="M251 470C262.046 470 271 461.046 271 450C271 438.954 262.046 430 251 430C239.954 430 231 438.954 231 450C231 461.046 239.954 470 251 470Z" fill="#25C648"/>
    <path d="M244 220C255.046 220 264 211.046 264 200C264 188.954 255.046 180 244 180C232.954 180 224 188.954 224 200C224 211.046 232.954 220 244 220Z" fill="#257BC6"/>
    <path d="M204 316C215.046 316 224 307.046 224 296C224 284.954 215.046 276 204 276C192.954 276 184 284.954 184 296C184 307.046 192.954 316 204 316Z" fill="#257BC6"/>
    <path d="M339 227C350.046 227 359 218.046 359 207C359 195.954 350.046 187 339 187C327.954 187 319 195.954 319 207C319 218.046 327.954 227 339 227Z" fill="#257BC6"/>
    </g>
    <defs>
    <clipPath id="clip0_22_2">
    <rect width="1280" height="720" fill="white"/>
    </clipPath>
    </defs>
</svg>